# 3ds Max Wavefront OBJ Exporter v0.97b - (c)2007 guruware
# 创建的文件:09.09.2014 20:44:00

mtllib help.mtl

#
# object Cylinder01
#

v  -29.8698 33.8000 -0.2900
v  -29.8698 16.9000 28.9817
v  -17.8698 16.9000 28.9817
v  -17.8698 33.8000 -0.2900
v  -29.8698 -16.9000 28.9817
v  -17.8698 -16.9000 28.9817
v  -29.8698 -33.8000 -0.2900
v  -17.8698 -33.8000 -0.2900
v  -29.8698 -16.9000 -29.5617
v  -17.8698 -16.9000 -29.5617
v  -29.8698 16.9000 -29.5617
v  -17.8698 16.9000 -29.5617
v  -5.8698 16.9000 28.9817
v  -5.8698 33.8000 -0.2900
v  -5.8698 -16.9000 28.9817
v  -5.8698 -33.8000 -0.2900
v  -5.8698 -16.9000 -29.5617
v  -5.8698 16.9000 -29.5617
v  6.1302 16.9000 28.9817
v  6.1302 33.8000 -0.2900
v  6.1302 -16.9000 28.9817
v  6.1302 -33.8000 -0.2900
v  6.1302 -16.9000 -29.5617
v  6.1302 16.9000 -29.5617
v  18.1302 16.9000 28.9817
v  18.1302 33.8000 -0.2900
v  18.1302 -16.9000 28.9817
v  18.1302 -33.8000 -0.2900
v  18.1302 -16.9000 -29.5617
v  18.1302 16.9000 -29.5617
v  30.1302 16.9000 28.9817
v  30.1302 33.8000 -0.2900
v  30.1302 -16.9000 28.9817
v  30.1302 -33.8000 -0.2900
v  30.1302 -16.9000 -29.5617
v  30.1302 16.9000 -29.5617
# 36 vertices

vn 0.0000 1.0000 -0.0000
vn 0.0000 0.5000 0.8660
vn 0.0000 -0.5000 0.8660
vn 0.0000 -1.0000 -0.0000
vn 0.0000 -0.5000 -0.8660
vn 0.0000 0.5000 -0.8660
vn -1.0000 0.0000 -0.0000
vn 1.0000 0.0000 -0.0000
# 8 vertex normals

vt 0.5000 1.0000 0.0000
vt 0.5000 0.6680 0.0000
vt 0.6016 0.6680 0.0000
vt 0.6016 1.0000 0.0000
vt -0.0000 1.0000 0.0000
vt -0.0000 0.6680 0.0000
vt 0.1016 0.6680 0.0000
vt 0.1016 1.0000 0.0000
vt 0.5000 0.3320 0.0000
vt 0.5000 0.0000 0.0000
vt 0.6016 0.0000 0.0000
vt 0.6016 0.3320 0.0000
vt -0.0000 0.3320 0.0000
vt -0.0000 0.0039 0.0000
vt 0.1016 0.0039 0.0000
vt 0.1016 0.3320 0.0000
vt 0.7031 0.6680 0.0000
vt 0.7031 1.0000 0.0000
vt 0.1992 0.6680 0.0000
vt 0.1992 1.0000 0.0000
vt 0.7031 0.0000 0.0000
vt 0.7031 0.3320 0.0000
vt 0.1992 0.0039 0.0000
vt 0.1992 0.3320 0.0000
vt 0.8008 0.6680 0.0000
vt 0.8008 1.0000 0.0000
vt 0.3008 0.6680 0.0000
vt 0.3008 1.0000 0.0000
vt 0.8008 0.0000 0.0000
vt 0.8008 0.3320 0.0000
vt 0.3008 0.0039 0.0000
vt 0.3008 0.3320 0.0000
vt 0.9023 0.6680 0.0000
vt 0.9023 1.0000 0.0000
vt 0.4023 0.6680 0.0000
vt 0.4023 1.0000 0.0000
vt 0.9023 0.0000 0.0000
vt 0.9023 0.3320 0.0000
vt 0.3984 0.0039 0.0000
vt 0.3984 0.3320 0.0000
vt 0.4023 0.3320 0.0000
vt 1.0000 0.6680 0.0000
vt 1.0000 1.0000 0.0000
vt 1.0000 0.0000 0.0000
vt 1.0000 0.3320 0.0000
vt 0.5000 0.0039 0.0000
vt -0.6771 0.8821 0.0000
vt -0.4805 0.7675 0.0000
vt -0.2838 0.8821 0.0000
vt -0.2838 1.1112 0.0000
vt -0.4805 1.2256 0.0000
vt -0.6771 1.1112 0.0000
vt -0.7989 0.2975 0.0000
vt -0.7989 0.0683 0.0000
vt -0.6023 -0.0461 0.0000
vt -0.4056 0.0683 0.0000
vt -0.4056 0.2975 0.0000
vt -0.6023 0.4119 0.0000
# 58 texture coords

g Cylinder01
usemtl _help_help_help_help_help_help01___Default
s 8
f 1/1/1 2/2/2 3/3/2 
f 3/3/2 4/4/1 1/1/1 
f 2/5/2 5/6/3 6/7/3 
f 6/7/3 3/8/2 2/5/2 
f 5/9/3 7/10/4 8/11/4 
f 8/11/4 6/12/3 5/9/3 
f 7/13/4 9/14/5 10/15/5 
f 10/15/5 8/16/4 7/13/4 
f 9/2/5 11/9/6 12/12/6 
f 12/12/6 10/3/5 9/2/5 
f 11/6/6 1/13/1 4/16/1 
f 4/16/1 12/7/6 11/6/6 
f 4/4/1 3/3/2 13/17/2 
f 13/17/2 14/18/1 4/4/1 
f 3/8/2 6/7/3 15/19/3 
f 15/19/3 13/20/2 3/8/2 
f 6/12/3 8/11/4 16/21/4 
f 16/21/4 15/22/3 6/12/3 
f 8/16/4 10/15/5 17/23/5 
f 17/23/5 16/24/4 8/16/4 
f 10/3/5 12/12/6 18/22/6 
f 18/22/6 17/17/5 10/3/5 
f 12/7/6 4/16/1 14/24/1 
f 14/24/1 18/19/6 12/7/6 
f 14/18/1 13/17/2 19/25/2 
f 19/25/2 20/26/1 14/18/1 
f 13/20/2 15/19/3 21/27/3 
f 21/27/3 19/28/2 13/20/2 
f 15/22/3 16/21/4 22/29/4 
f 22/29/4 21/30/3 15/22/3 
f 16/24/4 17/23/5 23/31/5 
f 23/31/5 22/32/4 16/24/4 
f 17/17/5 18/22/6 24/30/6 
f 24/30/6 23/25/5 17/17/5 
f 18/19/6 14/24/1 20/32/1 
f 20/32/1 24/27/6 18/19/6 
f 20/26/1 19/25/2 25/33/2 
f 25/33/2 26/34/1 20/26/1 
f 19/28/2 21/27/3 27/35/3 
f 27/35/3 25/36/2 19/28/2 
f 21/30/3 22/29/4 28/37/4 
f 28/37/4 27/38/3 21/30/3 
f 22/32/4 23/31/5 29/39/5 
f 29/39/5 28/40/4 22/32/4 
f 23/25/5 24/30/6 30/38/6 
f 30/38/6 29/33/5 23/25/5 
f 24/27/6 20/32/1 26/41/1 
f 26/41/1 30/35/6 24/27/6 
f 26/34/1 25/33/2 31/42/2 
f 31/42/2 32/43/1 26/34/1 
f 25/36/2 27/35/3 33/2/3 
f 33/2/3 31/1/2 25/36/2 
f 27/38/3 28/37/4 34/44/4 
f 34/44/4 33/45/3 27/38/3 
f 28/40/4 29/39/5 35/46/5 
f 35/46/5 34/9/4 28/40/4 
f 29/33/5 30/38/6 36/45/6 
f 36/45/6 35/42/5 29/33/5 
f 30/35/6 26/41/1 32/9/1 
f 32/9/1 36/2/6 30/35/6 
s 1
f 9/47/7 7/48/7 5/49/7 
f 5/49/7 2/50/7 1/51/7 
f 9/47/7 5/49/7 1/51/7 
f 11/52/7 9/47/7 1/51/7 
f 31/53/8 33/54/8 34/55/8 
f 34/55/8 35/56/8 36/57/8 
f 31/53/8 34/55/8 36/57/8 
f 32/58/8 31/53/8 36/57/8 
# 68 faces

